<svg xmlns="http://www.w3.org/2000/svg" version="1.1" xmlns:xlink="http://www.w3.org/1999/xlink" xmlns:svgjs="http://svgjs.dev/svgjs" width="1440" height="1080" preserveAspectRatio="none" viewBox="0 0 1440 1080"><g mask="url(&quot;#SvgjsMask1003&quot;)" fill="none"><path d="M648.95 270C648.95 151.48 719.32 128.84 810 15C826.85 -6.16 836.19 1.55 864 0C971.19 -5.95 972 0 1080 0C1215 0 1215 0 1350 0C1485 0 1552.5 -67.5 1620 0C1687.5 67.5 1620 135 1620 270C1620 332.31 1626.09 332.86 1620 394.62C1612.78 467.86 1593.38 467.13 1593.38 540C1593.38 625.73 1611.49 625.54 1620 711.82C1624.8 760.54 1620 760.91 1620 810C1620 945 1687.5 1012.5 1620 1080C1552.5 1147.5 1485 1080 1350 1080C1250.14 1080 1233.47 1111.62 1150.27 1080C1098.47 1060.32 1122.45 977.4 1080 977.4C1024.76 977.4 1026.11 1052.93 954.88 1080C891.11 1104.23 882.44 1080 810 1080C746.81 1080 683.62 1108.73 683.62 1080C683.62 1036.29 747.83 1008.42 810 935.12C862.32 873.42 898.8 883.77 912.6 810C935.76 686.21 918.48 667.6 883.93 540C867.18 478.12 853.04 480.5 810 431.05C735.55 345.5 648.95 359.5 648.95 270" stroke="rgba(255, 255, 255, 1)" stroke-width="2"></path><path d="M270 695.77C237.08 695.77 226.32 757.11 226.32 810C226.32 837.79 243.32 857.14 270 857.14C318.19 857.14 376.07 844.44 376.07 810C376.07 763.75 311.96 695.77 270 695.77" stroke="rgba(255, 255, 255, 1)" stroke-width="2"></path><path d="M0 222.35C7.8 222.35 14.59 246.1 28.93 270C109.88 404.92 164.51 396.49 190.59 540C213.58 666.49 104.48 689.35 127.06 810C144.18 901.49 200.55 885.38 270 964.29C319.36 1020.38 364.68 1044.58 364.68 1080C364.68 1102.43 317.34 1080 270 1080C135 1080 67.5 1147.5 0 1080C-67.5 1012.5 0 945 0 810C0 675 0 675 0 540C0 405 0 405 0 270C0 246.17 -6.67 222.35 0 222.35" stroke="rgba(255, 255, 255, 1)" stroke-width="2"></path><path d="M767.37 270C767.37 238.63 774.4 212.34 810 202.5C930.71 169.14 960.24 159.5 1080 183.6C1127.96 193.25 1102.23 239.28 1145.45 270C1237.23 335.22 1260.1 306.68 1350 375.47C1436.53 441.68 1498.31 450.7 1498.31 540C1498.31 655.41 1442.38 687.57 1350 784.88C1314.22 822.57 1296.22 798.45 1242 810C1161.22 827.21 1156.1 842.4 1080 842.4C1058.9 842.4 1055.67 831.1 1047.6 810C997.82 679.9 1024.52 666.08 964.29 540C905.72 417.39 890.74 423.34 810 312.63C792.28 288.34 767.37 293.69 767.37 270" stroke="rgba(255, 255, 255, 1)" stroke-width="2"></path><path d="M1620 86.79C1539.12 86.79 1399.09 22.48 1399.09 0C1399.09 -20.92 1540.7 -31.15 1620 0C1651.15 12.24 1649.58 86.79 1620 86.79" stroke="rgba(255, 255, 255, 1)" stroke-width="2"></path><path d="M1242.74 1080C1242.74 995.98 1288.51 842.73 1350 842.73C1416.01 842.73 1497.74 1002.39 1497.74 1080C1497.74 1121.02 1423.87 1080 1350 1080C1296.37 1080 1242.74 1114.61 1242.74 1080" stroke="rgba(255, 255, 255, 1)" stroke-width="2"></path><path d="M1044.64 540C1044.64 487.15 1035.76 442.49 1080 433.93C1188.44 412.96 1224.73 439.83 1350 480.94C1386.35 492.87 1403.24 507.95 1403.24 540C1403.24 581.43 1394.53 614.27 1350 627.91C1232.91 663.77 1189.92 670.64 1080 639C1037.24 626.69 1044.64 589.69 1044.64 540" stroke="rgba(255, 255, 255, 1)" stroke-width="2"></path><path d="M0 573.75C6.97 573.75 27.79 692.76 27.79 810C27.79 866.48 7.05 921.18 0 921.18C-6.84 921.18 0 865.59 0 810C0 691.88 -6.92 573.75 0 573.75" stroke="rgba(255, 255, 255, 1)" stroke-width="2"></path><path d="M225 1080C225 1077.84 249.06 1071.43 270 1071.43C275.06 1071.43 277.01 1077.38 277.01 1080C277.01 1081.66 273.5 1080 270 1080C247.5 1080 225 1082.12 225 1080" stroke="rgba(255, 255, 255, 1)" stroke-width="2"></path><path d="M1335.21 1080C1335.21 1068.41 1341.52 1047.27 1350 1047.27C1359.1 1047.27 1370.38 1069.29 1370.38 1080C1370.38 1085.66 1360.19 1080 1350 1080C1342.61 1080 1335.21 1084.77 1335.21 1080" stroke="rgba(255, 255, 255, 1)" stroke-width="2"></path></g><defs><mask id="SvgjsMask1003"><rect width="1440" height="1080" fill="#ffffff"></rect></mask></defs></svg>